<svg width="1280" height="832" viewBox="0 0 1280 832" fill="none" xmlns="http://www.w3.org/2000/svg">
<g clip-path="url(#clip0_1_2)">
<rect width="1280" height="832" fill="white"/>
<rect x="-3" width="1283" height="548" fill="#D6E6FF"/>
<path d="M77.209 43.6057L75.4763 61.4256C75.2906 63.3348 73.0889 64.3339 71.5157 63.2227L56.7974 52.8268C55.2242 51.7156 55.4614 49.3289 57.224 48.5335L73.675 41.1095C75.4334 40.316 77.3942 41.701 77.209 43.6057Z" stroke="black" stroke-opacity="0.1"/>
<path d="M373.619 123.326L371.886 141.146C371.701 143.055 369.499 144.054 367.926 142.943L353.208 132.547C351.634 131.436 351.872 129.049 353.634 128.254L370.085 120.83C371.844 120.036 373.804 121.421 373.619 123.326Z" stroke="black" stroke-opacity="0.1"/>
<path d="M73.5496 109.737L71.8169 127.557C71.6312 129.466 69.4295 130.465 67.8563 129.354L53.138 118.958C51.5648 117.847 51.802 115.46 53.5646 114.665L70.0156 107.241C71.774 106.448 73.7349 107.833 73.5496 109.737Z" stroke="black" stroke-opacity="0.1"/>
<path d="M114.718 182.21L112.985 200.03C112.799 201.939 110.598 202.938 109.024 201.827L94.3061 191.431C92.7329 190.32 92.9701 187.933 94.7327 187.138L111.184 179.714C112.942 178.92 114.903 180.305 114.718 182.21Z" stroke="black" stroke-opacity="0.1"/>
<path d="M261.093 123.326L259.36 141.146C259.175 143.055 256.973 144.054 255.4 142.943L240.682 132.547C239.108 131.436 239.345 129.049 241.108 128.254L257.559 120.83C259.318 120.036 261.278 121.421 261.093 123.326Z" stroke="black" stroke-opacity="0.1"/>
<rect x="120.279" y="74.8439" width="17.2969" height="17.1182" rx="2.5" stroke="black" stroke-opacity="0.1"/>
<rect x="220.912" y="204.389" width="17.2969" height="17.1182" rx="2.5" stroke="black" stroke-opacity="0.1"/>
<rect x="186.148" y="34.0779" width="17.2969" height="17.1182" rx="2.5" stroke="black" stroke-opacity="0.1"/>
<rect x="167.851" y="158.188" width="17.2969" height="17.1182" rx="2.5" stroke="black" stroke-opacity="0.1"/>
<rect x="290.441" y="86.6207" width="17.2969" height="17.1182" rx="2.5" stroke="black" stroke-opacity="0.1"/>
<rect x="333.439" y="46.7606" width="17.2969" height="17.1182" rx="2.5" stroke="black" stroke-opacity="0.1"/>
<path d="M203.445 116.469C203.445 122.442 198.554 127.293 192.51 127.293C186.466 127.293 181.574 122.442 181.574 116.469C181.574 110.496 186.466 105.645 192.51 105.645C198.554 105.645 203.445 110.496 203.445 116.469Z" stroke="black" stroke-opacity="0.1"/>
<path d="M251.932 72.0791C251.932 78.0524 247.041 82.903 240.997 82.903C234.952 82.903 230.061 78.0524 230.061 72.0791C230.061 66.1058 234.952 61.2552 240.997 61.2552C247.041 61.2552 251.932 66.1058 251.932 72.0791Z" stroke="black" stroke-opacity="0.1"/>
<path d="M312.312 175.353C312.312 181.326 307.421 186.177 301.376 186.177C295.332 186.177 290.441 181.326 290.441 175.353C290.441 169.38 295.332 164.529 301.376 164.529C307.421 164.529 312.312 169.38 312.312 175.353Z" stroke="black" stroke-opacity="0.1"/>
<path d="M54.3379 229.318L52.6051 247.137C52.4194 249.047 50.2177 250.046 48.6445 248.935L33.9263 238.539C32.3531 237.427 32.5902 235.041 34.3528 234.245L50.8039 226.821C52.5623 226.028 54.5231 227.413 54.3379 229.318Z" stroke="black" stroke-opacity="0.1"/>
<path d="M350.748 309.038L349.015 326.858C348.83 328.767 346.628 329.766 345.055 328.655L330.336 318.259C328.763 317.148 329 314.761 330.763 313.966L347.214 306.542C348.972 305.748 350.933 307.133 350.748 309.038Z" stroke="black" stroke-opacity="0.1"/>
<path d="M50.6785 295.449L48.9457 313.269C48.76 315.178 46.5583 316.177 44.9851 315.066L30.2669 304.67C28.6937 303.559 28.9308 301.172 30.6934 300.377L47.1445 292.953C48.9029 292.159 50.8637 293.544 50.6785 295.449Z" stroke="black" stroke-opacity="0.1"/>
<path d="M91.8466 367.922L90.1138 385.742C89.9281 387.651 87.7264 388.65 86.1532 387.539L71.435 377.143C69.8618 376.032 70.0989 373.645 71.8615 372.85L88.3126 365.426C90.071 364.632 92.0318 366.017 91.8466 367.922Z" stroke="black" stroke-opacity="0.1"/>
<path d="M238.222 309.038L236.489 326.858C236.304 328.767 234.102 329.766 232.529 328.655L217.81 318.259C216.237 317.148 216.474 314.761 218.237 313.966L234.688 306.542C236.446 305.748 238.407 307.133 238.222 309.038Z" stroke="black" stroke-opacity="0.1"/>
<rect x="97.4082" y="260.556" width="17.2969" height="17.1182" rx="2.5" stroke="black" stroke-opacity="0.1"/>
<rect x="198.041" y="390.101" width="17.2969" height="17.1182" rx="2.5" stroke="black" stroke-opacity="0.1"/>
<rect x="163.277" y="219.79" width="17.2969" height="17.1182" rx="2.5" stroke="black" stroke-opacity="0.1"/>
<rect x="144.98" y="343.9" width="17.2969" height="17.1182" rx="2.5" stroke="black" stroke-opacity="0.1"/>
<rect x="267.57" y="272.333" width="17.2969" height="17.1182" rx="2.5" stroke="black" stroke-opacity="0.1"/>
<rect x="310.567" y="232.473" width="17.2969" height="17.1182" rx="2.5" stroke="black" stroke-opacity="0.1"/>
<path d="M180.574 302.181C180.574 308.154 175.683 313.005 169.639 313.005C163.594 313.005 158.703 308.154 158.703 302.181C158.703 296.207 163.594 291.357 169.639 291.357C175.683 291.357 180.574 296.207 180.574 302.181Z" stroke="black" stroke-opacity="0.1"/>
<path d="M229.061 257.791C229.061 263.764 224.17 268.615 218.125 268.615C212.081 268.615 207.19 263.764 207.19 257.791C207.19 251.818 212.081 246.967 218.125 246.967C224.17 246.967 229.061 251.818 229.061 257.791Z" stroke="black" stroke-opacity="0.1"/>
<path d="M289.441 361.065C289.441 367.038 284.549 371.889 278.505 371.889C272.461 371.889 267.57 367.038 267.57 361.065C267.57 355.092 272.461 350.241 278.505 350.241C284.549 350.241 289.441 355.092 289.441 361.065Z" stroke="black" stroke-opacity="0.1"/>
<path d="M426.68 74.4067L424.948 92.2265C424.762 94.1358 422.56 95.1349 420.987 94.0237L406.269 83.6278C404.696 82.5166 404.933 80.1299 406.695 79.3345L423.146 71.9105C424.905 71.117 426.866 72.502 426.68 74.4067Z" stroke="black" stroke-opacity="0.1"/>
<path d="M723.091 154.127L721.358 171.947C721.172 173.856 718.97 174.855 717.397 173.744L702.679 163.348C701.106 162.237 701.343 159.85 703.106 159.055L719.557 151.631C721.315 150.837 723.276 152.222 723.091 154.127Z" stroke="black" stroke-opacity="0.1"/>
<path d="M423.021 140.538L421.288 158.358C421.103 160.267 418.901 161.266 417.328 160.155L402.609 149.759C401.036 148.648 401.273 146.261 403.036 145.466L419.487 138.042C421.245 137.249 423.206 138.634 423.021 140.538Z" stroke="black" stroke-opacity="0.1"/>
<path d="M464.189 213.011L462.456 230.831C462.271 232.74 460.069 233.739 458.496 232.628L443.777 222.232C442.204 221.121 442.441 218.734 444.204 217.939L460.655 210.515C462.413 209.721 464.374 211.106 464.189 213.011Z" stroke="black" stroke-opacity="0.1"/>
<path d="M610.565 154.127L608.832 171.947C608.646 173.856 606.444 174.855 604.871 173.744L590.153 163.348C588.58 162.237 588.817 159.85 590.579 159.055L607.031 151.631C608.789 150.837 610.75 152.222 610.565 154.127Z" stroke="black" stroke-opacity="0.1"/>
<rect x="469.751" y="105.645" width="17.2969" height="17.1182" rx="2.5" stroke="black" stroke-opacity="0.1"/>
<rect x="570.384" y="235.19" width="17.2969" height="17.1182" rx="2.5" stroke="black" stroke-opacity="0.1"/>
<rect x="535.62" y="64.8789" width="17.2969" height="17.1182" rx="2.5" stroke="black" stroke-opacity="0.1"/>
<rect x="517.323" y="188.989" width="17.2969" height="17.1182" rx="2.5" stroke="black" stroke-opacity="0.1"/>
<rect x="639.912" y="117.422" width="17.2969" height="17.1182" rx="2.5" stroke="black" stroke-opacity="0.1"/>
<rect x="682.91" y="77.5616" width="17.2969" height="17.1182" rx="2.5" stroke="black" stroke-opacity="0.1"/>
<path d="M552.917 147.27C552.917 153.243 548.025 158.094 541.981 158.094C535.937 158.094 531.045 153.243 531.045 147.27C531.045 141.297 535.937 136.446 541.981 136.446C548.025 136.446 552.917 141.297 552.917 147.27Z" stroke="black" stroke-opacity="0.1"/>
<path d="M601.404 102.88C601.404 108.853 596.512 113.704 590.468 113.704C584.424 113.704 579.532 108.853 579.532 102.88C579.532 96.9068 584.424 92.0562 590.468 92.0562C596.512 92.0562 601.404 96.9068 601.404 102.88Z" stroke="black" stroke-opacity="0.1"/>
<path d="M661.783 206.154C661.783 212.127 656.892 216.978 650.848 216.978C644.804 216.978 639.912 212.127 639.912 206.154C639.912 200.181 644.804 195.33 650.848 195.33C656.892 195.33 661.783 200.181 661.783 206.154Z" stroke="black" stroke-opacity="0.1"/>
<path d="M781.641 34.5466L779.908 52.3664C779.722 54.2757 777.521 55.2748 775.948 54.1636L761.229 43.7677C759.656 42.6565 759.893 40.2698 761.656 39.4744L778.107 32.0504C779.865 31.2569 781.826 32.6419 781.641 34.5466Z" stroke="black" stroke-opacity="0.1"/>
<path d="M1078.05 114.267L1076.32 132.087C1076.13 133.996 1073.93 134.995 1072.36 133.884L1057.64 123.488C1056.07 122.377 1056.3 119.99 1058.07 119.195L1074.52 111.771C1076.28 110.977 1078.24 112.362 1078.05 114.267Z" stroke="black" stroke-opacity="0.1"/>
<path d="M777.981 100.678L776.249 118.498C776.063 120.407 773.861 121.406 772.288 120.295L757.57 109.899C755.997 108.788 756.234 106.401 757.996 105.606L774.447 98.1819C776.206 97.3884 778.167 98.7734 777.981 100.678Z" stroke="black" stroke-opacity="0.1"/>
<path d="M819.149 173.151L817.417 190.971C817.231 192.88 815.029 193.879 813.456 192.768L798.738 182.372C797.165 181.261 797.402 178.874 799.164 178.079L815.615 170.655C817.374 169.861 819.335 171.246 819.149 173.151Z" stroke="black" stroke-opacity="0.1"/>
<path d="M965.525 114.267L963.792 132.087C963.606 133.996 961.405 134.995 959.832 133.884L945.113 123.488C943.54 122.377 943.777 119.99 945.54 119.195L961.991 111.771C963.749 110.977 965.71 112.362 965.525 114.267Z" stroke="black" stroke-opacity="0.1"/>
<rect x="824.711" y="65.7848" width="17.2969" height="17.1182" rx="2.5" stroke="black" stroke-opacity="0.1"/>
<rect x="925.344" y="195.33" width="17.2969" height="17.1182" rx="2.5" stroke="black" stroke-opacity="0.1"/>
<rect x="890.58" y="25.0187" width="17.2969" height="17.1182" rx="2.5" stroke="black" stroke-opacity="0.1"/>
<rect x="872.283" y="149.129" width="17.2969" height="17.1182" rx="2.5" stroke="black" stroke-opacity="0.1"/>
<rect x="994.873" y="77.5616" width="17.2969" height="17.1182" rx="2.5" stroke="black" stroke-opacity="0.1"/>
<rect x="1037.87" y="37.7015" width="17.2969" height="17.1182" rx="2.5" stroke="black" stroke-opacity="0.1"/>
<path d="M907.877 107.41C907.877 113.383 902.986 118.234 896.941 118.234C890.897 118.234 886.006 113.383 886.006 107.41C886.006 101.436 890.897 96.5858 896.941 96.5858C902.986 96.5858 907.877 101.436 907.877 107.41Z" stroke="black" stroke-opacity="0.1"/>
<path d="M956.364 63.02C956.364 68.9932 951.472 73.8439 945.428 73.8439C939.384 73.8439 934.493 68.9932 934.493 63.02C934.493 57.0467 939.384 52.1961 945.428 52.1961C951.472 52.1961 956.364 57.0467 956.364 63.02Z" stroke="black" stroke-opacity="0.1"/>
<path d="M1016.74 166.294C1016.74 172.267 1011.85 177.118 1005.81 177.118C999.764 177.118 994.873 172.267 994.873 166.294C994.873 160.321 999.764 155.47 1005.81 155.47C1011.85 155.47 1016.74 160.321 1016.74 166.294Z" stroke="black" stroke-opacity="0.1"/>
<path d="M1265.08 25.845L1247.09 24.1292C1245.16 23.9459 1244.17 21.7696 1245.29 20.2093L1255.79 5.63474C1256.91 4.07443 1259.32 4.2985 1260.12 6.03833L1267.61 22.3287C1268.42 24.0727 1267.01 26.0287 1265.08 25.845Z" stroke="black" stroke-opacity="0.1"/>
<path d="M1184.58 319.36L1166.58 317.645C1164.66 317.461 1163.66 315.285 1164.79 313.725L1175.28 299.15C1176.41 297.59 1178.81 297.814 1179.61 299.554L1187.11 315.844C1187.91 317.588 1186.5 319.544 1184.58 319.36Z" stroke="black" stroke-opacity="0.1"/>
<path d="M1198.3 22.2214L1180.3 20.5055C1178.38 20.3223 1177.38 18.1459 1178.51 16.5856L1189.01 2.01108C1190.13 0.450769 1192.53 0.674843 1193.33 2.41467L1200.83 18.7051C1201.63 20.4491 1200.22 22.4051 1198.3 22.2214Z" stroke="black" stroke-opacity="0.1"/>
<path d="M1125.11 62.9874L1107.11 61.2715C1105.19 61.0883 1104.2 58.912 1105.32 57.3517L1115.82 42.7771C1116.94 41.2168 1119.35 41.4409 1120.15 43.1807L1127.64 59.4711C1128.45 61.2151 1127.04 63.1711 1125.11 62.9874Z" stroke="black" stroke-opacity="0.1"/>
<path d="M1184.58 207.933L1166.58 206.217C1164.66 206.034 1163.66 203.858 1164.79 202.298L1175.28 187.723C1176.41 186.163 1178.81 186.387 1179.61 188.127L1187.11 204.417C1187.91 206.161 1186.5 208.117 1184.58 207.933Z" stroke="black" stroke-opacity="0.1"/>
<rect x="1233.56" y="68.5025" width="17.1182" height="17.2969" rx="2.5" transform="rotate(90 1233.56 68.5025)" stroke="black" stroke-opacity="0.1"/>
<rect x="1102.74" y="168.153" width="17.1182" height="17.2969" rx="2.5" transform="rotate(90 1102.74 168.153)" stroke="black" stroke-opacity="0.1"/>
<rect x="1274.73" y="133.728" width="17.1182" height="17.2969" rx="2.5" transform="rotate(90 1274.73 133.728)" stroke="black" stroke-opacity="0.1"/>
<rect x="1149.4" y="115.61" width="17.1182" height="17.2969" rx="2.5" transform="rotate(90 1149.4 115.61)" stroke="black" stroke-opacity="0.1"/>
<rect x="1221.67" y="237.002" width="17.1182" height="17.2969" rx="2.5" transform="rotate(90 1221.67 237.002)" stroke="black" stroke-opacity="0.1"/>
<rect x="1261.92" y="279.58" width="17.1182" height="17.2969" rx="2.5" transform="rotate(90 1261.92 279.58)" stroke="black" stroke-opacity="0.1"/>
<path d="M1191.52 150.846C1185.48 150.846 1180.59 145.996 1180.59 140.022C1180.59 134.049 1185.48 129.199 1191.52 129.199C1197.57 129.199 1202.46 134.049 1202.46 140.022C1202.46 145.996 1197.57 150.846 1191.52 150.846Z" stroke="black" stroke-opacity="0.1"/>
<path d="M1236.35 198.86C1230.31 198.86 1225.41 194.009 1225.41 188.036C1225.41 182.063 1230.31 177.212 1236.35 177.212C1242.39 177.212 1247.29 182.063 1247.29 188.036C1247.29 194.009 1242.39 198.86 1236.35 198.86Z" stroke="black" stroke-opacity="0.1"/>
<path d="M1132.06 258.65C1126.01 258.65 1121.12 253.799 1121.12 247.826C1121.12 241.853 1126.01 237.002 1132.06 237.002C1138.1 237.002 1142.99 241.853 1142.99 247.826C1142.99 253.799 1138.1 258.65 1132.06 258.65Z" stroke="black" stroke-opacity="0.1"/>
<path d="M1051.46 375.747L1035.58 367.204C1033.88 366.292 1033.82 363.902 1035.47 362.9L1050.88 353.547C1052.53 352.545 1054.66 353.683 1054.71 355.595L1055.18 373.492C1055.23 375.407 1053.16 376.661 1051.46 375.747Z" stroke="black" stroke-opacity="0.1"/>
<path d="M1095.43 273.177L1079.54 264.635C1077.85 263.722 1077.79 261.332 1079.44 260.331L1094.85 250.977C1096.5 249.976 1098.62 251.114 1098.68 253.026L1099.15 270.922C1099.2 272.838 1097.13 274.092 1095.43 273.177Z" stroke="black" stroke-opacity="0.1"/>
<rect x="-0.657931" y="0.265812" width="17.1456" height="17.2698" rx="2.5" transform="matrix(-0.393989 0.919115 -0.921874 -0.38749 1035.78 205.601)" stroke="black" stroke-opacity="0.1"/>
<path d="M1027.07 299.541C1021.51 297.203 1018.92 290.846 1021.28 285.346C1023.64 279.846 1030.05 277.275 1035.62 279.613C1041.18 281.951 1043.77 288.308 1041.41 293.808C1039.05 299.308 1032.64 301.879 1027.07 299.541Z" stroke="black" stroke-opacity="0.1"/>
<path d="M969.184 355.239L967.452 373.059C967.266 374.968 965.064 375.967 963.491 374.856L948.773 364.46C947.2 363.349 947.437 360.963 949.199 360.167L965.65 352.743C967.409 351.95 969.37 353.335 969.184 355.239Z" stroke="black" stroke-opacity="0.1"/>
<path d="M1265.59 434.96L1263.86 452.779C1263.68 454.689 1261.47 455.688 1259.9 454.577L1245.18 444.181C1243.61 443.069 1243.85 440.683 1245.61 439.887L1262.06 432.463C1263.82 431.67 1265.78 433.055 1265.59 434.96Z" stroke="black" stroke-opacity="0.1"/>
<path d="M965.525 421.371L963.792 439.191C963.607 441.1 961.405 442.099 959.832 440.988L945.113 430.592C943.54 429.481 943.777 427.094 945.54 426.299L961.991 418.875C963.749 418.081 965.71 419.466 965.525 421.371Z" stroke="black" stroke-opacity="0.1"/>
<path d="M1006.69 493.844L1004.96 511.664C1004.77 513.573 1002.57 514.572 1001 513.461L986.281 503.065C984.708 501.954 984.945 499.567 986.708 498.772L1003.16 491.348C1004.92 490.554 1006.88 491.939 1006.69 493.844Z" stroke="black" stroke-opacity="0.1"/>
<path d="M1153.07 434.96L1151.34 452.779C1151.15 454.689 1148.95 455.688 1147.38 454.577L1132.66 444.181C1131.08 443.069 1131.32 440.683 1133.08 439.887L1149.53 432.463C1151.29 431.67 1153.25 433.055 1153.07 434.96Z" stroke="black" stroke-opacity="0.1"/>
<rect x="1012.25" y="386.478" width="17.2969" height="17.1182" rx="2.5" stroke="black" stroke-opacity="0.1"/>
<rect x="1112.89" y="516.023" width="17.2969" height="17.1182" rx="2.5" stroke="black" stroke-opacity="0.1"/>
<rect x="1078.12" y="345.711" width="17.2969" height="17.1182" rx="2.5" stroke="black" stroke-opacity="0.1"/>
<rect x="1059.83" y="469.821" width="17.2969" height="17.1182" rx="2.5" stroke="black" stroke-opacity="0.1"/>
<rect x="1182.42" y="398.254" width="17.2969" height="17.1182" rx="2.5" stroke="black" stroke-opacity="0.1"/>
<rect x="1225.41" y="358.394" width="17.2969" height="17.1182" rx="2.5" stroke="black" stroke-opacity="0.1"/>
<path d="M1095.42 428.102C1095.42 434.076 1090.53 438.926 1084.48 438.926C1078.44 438.926 1073.55 434.076 1073.55 428.102C1073.55 422.129 1078.44 417.279 1084.48 417.279C1090.53 417.279 1095.42 422.129 1095.42 428.102Z" stroke="black" stroke-opacity="0.1"/>
<path d="M1143.91 383.713C1143.91 389.686 1139.02 394.537 1132.97 394.537C1126.93 394.537 1122.04 389.686 1122.04 383.713C1122.04 377.739 1126.93 372.889 1132.97 372.889C1139.02 372.889 1143.91 377.739 1143.91 383.713Z" stroke="black" stroke-opacity="0.1"/>
<path d="M1204.29 486.987C1204.29 492.96 1199.4 497.811 1193.35 497.811C1187.31 497.811 1182.42 492.96 1182.42 486.987C1182.42 481.013 1187.31 476.163 1193.35 476.163C1199.4 476.163 1204.29 481.013 1204.29 486.987Z" stroke="black" stroke-opacity="0.1"/>
<path d="M2.19161 443.113L0.458825 460.933C0.273171 462.842 -1.92854 463.841 -3.50173 462.73L-18.22 452.334C-19.7932 451.223 -19.5561 448.836 -17.7935 448.041L-1.3424 440.617C0.41599 439.823 2.37682 441.208 2.19161 443.113Z" stroke="black" stroke-opacity="0.1"/>
<path d="M298.602 522.833L296.869 540.653C296.683 542.562 294.482 543.561 292.909 542.45L278.19 532.054C276.617 530.943 276.854 528.556 278.617 527.761L295.068 520.337C296.826 519.543 298.787 520.928 298.602 522.833Z" stroke="black" stroke-opacity="0.1"/>
<path d="M-1.46779 509.244L-3.20057 527.064C-3.38622 528.973 -5.58794 529.973 -7.16112 528.861L-21.8794 518.465C-23.4526 517.354 -23.2155 514.968 -21.4529 514.172L-5.00179 506.748C-3.2434 505.955 -1.28258 507.34 -1.46779 509.244Z" stroke="black" stroke-opacity="0.1"/>
<path d="M186.076 522.833L184.343 540.653C184.157 542.562 181.956 543.561 180.382 542.45L165.664 532.054C164.091 530.943 164.328 528.556 166.091 527.761L182.542 520.337C184.3 519.543 186.261 520.928 186.076 522.833Z" stroke="black" stroke-opacity="0.1"/>
<rect x="45.262" y="474.351" width="17.2969" height="17.1182" rx="2.5" stroke="black" stroke-opacity="0.1"/>
<rect x="111.131" y="433.585" width="17.2969" height="17.1182" rx="2.5" stroke="black" stroke-opacity="0.1"/>
<rect x="215.423" y="486.128" width="17.2969" height="17.1182" rx="2.5" stroke="black" stroke-opacity="0.1"/>
<rect x="258.421" y="446.268" width="17.2969" height="17.1182" rx="2.5" stroke="black" stroke-opacity="0.1"/>
<path d="M128.428 515.976C128.428 521.949 123.536 526.8 117.492 526.8C111.448 526.8 106.557 521.949 106.557 515.976C106.557 510.003 111.448 505.152 117.492 505.152C123.536 505.152 128.428 510.003 128.428 515.976Z" stroke="black" stroke-opacity="0.1"/>
<path d="M176.915 471.586C176.915 477.559 172.023 482.41 165.979 482.41C159.935 482.41 155.044 477.559 155.044 471.586C155.044 465.613 159.935 460.762 165.979 460.762C172.023 460.762 176.915 465.613 176.915 471.586Z" stroke="black" stroke-opacity="0.1"/>
<path d="M483.667 182.042L467.779 190.585C466.081 191.498 464.022 190.246 464.073 188.331L464.546 170.435C464.597 168.52 466.719 167.377 468.367 168.377L483.781 177.731C485.431 178.732 485.367 181.128 483.667 182.042Z" stroke="black" stroke-opacity="0.1"/>
<path d="M582.675 469.957L566.787 478.499C565.088 479.412 563.03 478.161 563.08 476.246L563.553 458.349C563.604 456.434 565.726 455.291 567.374 456.291L582.789 465.645C584.438 466.646 584.375 469.043 582.675 469.957Z" stroke="black" stroke-opacity="0.1"/>
<path d="M426.255 216.019L410.367 224.561C408.668 225.474 406.609 224.223 406.66 222.308L407.133 204.411C407.184 202.496 409.306 201.353 410.954 202.353L426.369 211.707C428.018 212.708 427.955 215.104 426.255 216.019Z" stroke="black" stroke-opacity="0.1"/>
<path d="M388.6 290.341L372.712 298.884C371.014 299.797 368.955 298.545 369.006 296.63L369.479 278.734C369.53 276.819 371.652 275.676 373.3 276.676L388.714 286.03C390.364 287.031 390.3 289.427 388.6 290.341Z" stroke="black" stroke-opacity="0.1"/>
<path d="M519.751 377.579L503.863 386.122C502.165 387.035 500.106 385.783 500.156 383.868L500.63 365.972C500.68 364.057 502.802 362.914 504.45 363.914L519.865 373.268C521.515 374.269 521.451 376.665 519.751 377.579Z" stroke="black" stroke-opacity="0.1"/>
<rect x="-0.134301" y="0.690951" width="17.1743" height="17.2412" rx="2.5" transform="matrix(0.562966 0.82648 -0.831568 0.555422 482.267 234.59)" stroke="black" stroke-opacity="0.1"/>
<rect x="-0.134301" y="0.690951" width="17.1743" height="17.2412" rx="2.5" transform="matrix(0.562966 0.82648 -0.831568 0.555422 430.084 389.645)" stroke="black" stroke-opacity="0.1"/>
<rect x="-0.134301" y="0.690951" width="17.1743" height="17.2412" rx="2.5" transform="matrix(0.562966 0.82648 -0.831568 0.555422 553.231 265.869)" stroke="black" stroke-opacity="0.1"/>
<rect x="-0.134301" y="0.690951" width="17.1743" height="17.2412" rx="2.5" transform="matrix(0.562966 0.82648 -0.831568 0.555422 439.093 320.249)" stroke="black" stroke-opacity="0.1"/>
<rect x="-0.134301" y="0.690951" width="17.1743" height="17.2412" rx="2.5" transform="matrix(0.562966 0.82648 -0.831568 0.555422 567.561 380.868)" stroke="black" stroke-opacity="0.1"/>
<rect x="-0.134301" y="0.690951" width="17.1743" height="17.2412" rx="2.5" transform="matrix(0.562966 0.82648 -0.831568 0.555422 624.976 393.877)" stroke="black" stroke-opacity="0.1"/>
<path d="M493.268 326.41C488.26 329.755 481.465 328.445 478.09 323.49C474.714 318.535 476.033 311.805 481.041 308.46C486.049 305.116 492.844 306.425 496.219 311.381C499.594 316.336 498.275 323.065 493.268 326.41Z" stroke="black" stroke-opacity="0.1"/>
<path d="M557.545 341.392C552.537 344.737 545.742 343.427 542.367 338.472C538.991 333.517 540.311 326.788 545.318 323.443C550.326 320.098 557.121 321.408 560.496 326.363C563.871 331.318 562.552 338.047 557.545 341.392Z" stroke="black" stroke-opacity="0.1"/>
<path d="M504.846 448.711C499.839 452.055 493.044 450.746 489.668 445.79C486.293 440.835 487.612 434.106 492.62 430.761C497.628 427.416 504.423 428.726 507.798 433.681C511.173 438.637 509.854 445.366 504.846 448.711Z" stroke="black" stroke-opacity="0.1"/>
<path d="M645.246 436.51L644.615 454.401C644.547 456.318 642.411 457.448 640.772 456.434L625.441 446.947C623.802 445.933 623.891 443.537 625.602 442.636L641.564 434.232C643.271 433.333 645.313 434.597 645.246 436.51Z" stroke="black" stroke-opacity="0.1"/>
<path d="M946.018 498.162L945.387 516.054C945.319 517.971 943.183 519.101 941.545 518.087L926.213 508.6C924.574 507.586 924.664 505.19 926.374 504.289L942.337 495.885C944.043 494.986 946.085 496.25 946.018 498.162Z" stroke="black" stroke-opacity="0.1"/>
<path d="M645.67 502.739L645.039 520.63C644.972 522.547 642.836 523.678 641.197 522.664L625.865 513.177C624.226 512.163 624.316 509.766 626.026 508.866L641.989 500.461C643.695 499.563 645.738 500.827 645.67 502.739Z" stroke="black" stroke-opacity="0.1"/>
<path d="M833.702 504.965L833.071 522.856C833.003 524.773 830.867 525.903 829.228 524.889L813.897 515.403C812.258 514.389 812.347 511.992 814.058 511.092L830.02 502.687C831.726 501.789 833.769 503.053 833.702 504.965Z" stroke="black" stroke-opacity="0.1"/>
<rect x="0.52991" y="0.468822" width="17.2963" height="17.1189" rx="2.5" transform="matrix(0.998171 -0.0604545 0.0616484 0.998098 689.604 464.65)" stroke="black" stroke-opacity="0.1"/>
<rect x="0.52991" y="0.468822" width="17.2963" height="17.1189" rx="2.5" transform="matrix(0.998171 -0.0604545 0.0616484 0.998098 752.837 419.978)" stroke="black" stroke-opacity="0.1"/>
<rect x="0.52991" y="0.468822" width="17.2963" height="17.1189" rx="2.5" transform="matrix(0.998171 -0.0604545 0.0616484 0.998098 860.174 466.118)" stroke="black" stroke-opacity="0.1"/>
<rect x="0.52991" y="0.468822" width="17.2963" height="17.1189" rx="2.5" transform="matrix(0.998171 -0.0604545 0.0616484 0.998098 900.634 423.733)" stroke="black" stroke-opacity="0.1"/>
<path d="M775.739 501.605C776.107 507.568 771.524 512.705 765.491 513.07C759.458 513.436 754.276 508.89 753.908 502.928C753.54 496.965 758.123 491.828 764.156 491.463C770.189 491.097 775.37 495.643 775.739 501.605Z" stroke="black" stroke-opacity="0.1"/>
<path d="M821.398 454.367C821.766 460.33 817.183 465.467 811.15 465.832C805.117 466.198 799.936 461.652 799.568 455.69C799.2 449.727 803.783 444.59 809.816 444.225C815.849 443.859 821.03 448.405 821.398 454.367Z" stroke="black" stroke-opacity="0.1"/>
<path d="M549.678 537.123L534.021 528.172C532.348 527.215 532.351 524.824 534.027 523.866L549.684 514.915C551.359 513.957 553.452 515.15 553.452 517.063L553.452 534.965C553.452 536.881 551.354 538.081 549.678 537.123Z" stroke="black" stroke-opacity="0.1"/>
<path d="M471.001 485.486L455.344 476.535C453.671 475.578 453.674 473.187 455.35 472.229L471.007 463.278C472.683 462.32 474.775 463.513 474.775 465.426L474.775 483.328C474.775 485.244 472.677 486.444 471.001 485.486Z" stroke="black" stroke-opacity="0.1"/>
<path d="M358.475 402.142L342.818 393.191C341.145 392.234 341.148 389.843 342.824 388.885L358.481 379.934C360.157 378.976 362.249 380.169 362.249 382.082L362.249 399.984C362.249 401.9 360.151 403.1 358.475 402.142Z" stroke="black" stroke-opacity="0.1"/>
<rect x="-0.664778" y="0.248541" width="17.1491" height="17.2663" rx="2.5" transform="matrix(-0.418071 0.908414 -0.911486 -0.411331 420.569 440.275)" stroke="black" stroke-opacity="0.1"/>
<rect x="-0.664778" y="0.248541" width="17.1491" height="17.2663" rx="2.5" transform="matrix(-0.418071 0.908414 -0.911486 -0.411331 430.715 516.533)" stroke="black" stroke-opacity="0.1"/>
<rect x="-0.664778" y="0.248541" width="17.1491" height="17.2663" rx="2.5" transform="matrix(-0.418071 0.908414 -0.911486 -0.411331 324.254 448.579)" stroke="black" stroke-opacity="0.1"/>
<path d="M347.881 497.237C342.383 494.756 339.962 488.334 342.464 482.897C344.967 477.459 351.45 475.056 356.948 477.537C362.446 480.018 364.867 486.44 362.365 491.877C359.862 497.315 353.379 499.718 347.881 497.237Z" stroke="black" stroke-opacity="0.1"/>
<path d="M649.903 230.223L648.17 248.043C647.984 249.953 645.783 250.952 644.21 249.84L629.491 239.445C627.918 238.333 628.155 235.947 629.918 235.151L646.369 227.727C648.127 226.934 650.088 228.319 649.903 230.223Z" stroke="black" stroke-opacity="0.1"/>
<path d="M946.313 309.944L944.58 327.764C944.395 329.673 942.193 330.672 940.62 329.561L925.902 319.165C924.328 318.054 924.565 315.667 926.328 314.872L942.779 307.448C944.538 306.654 946.498 308.039 946.313 309.944Z" stroke="black" stroke-opacity="0.1"/>
<path d="M646.244 296.355L644.511 314.175C644.325 316.084 642.123 317.083 640.55 315.972L625.832 305.576C624.259 304.465 624.496 302.078 626.258 301.283L642.71 293.859C644.468 293.065 646.429 294.45 646.244 296.355Z" stroke="black" stroke-opacity="0.1"/>
<path d="M687.412 368.828L685.679 386.648C685.493 388.557 683.291 389.556 681.718 388.445L667 378.049C665.427 376.938 665.664 374.551 667.427 373.756L683.878 366.332C685.636 365.538 687.597 366.923 687.412 368.828Z" stroke="black" stroke-opacity="0.1"/>
<path d="M833.787 309.944L832.054 327.764C831.869 329.673 829.667 330.672 828.094 329.561L813.375 319.165C811.802 318.054 812.039 315.667 813.802 314.872L830.253 307.448C832.011 306.654 833.972 308.039 833.787 309.944Z" stroke="black" stroke-opacity="0.1"/>
<rect x="692.973" y="261.462" width="17.2969" height="17.1182" rx="2.5" stroke="black" stroke-opacity="0.1"/>
<rect x="793.606" y="391.007" width="17.2969" height="17.1182" rx="2.5" stroke="black" stroke-opacity="0.1"/>
<rect x="758.842" y="220.696" width="17.2969" height="17.1182" rx="2.5" stroke="black" stroke-opacity="0.1"/>
<rect x="740.545" y="344.806" width="17.2969" height="17.1182" rx="2.5" stroke="black" stroke-opacity="0.1"/>
<rect x="863.135" y="273.239" width="17.2969" height="17.1182" rx="2.5" stroke="black" stroke-opacity="0.1"/>
<rect x="906.133" y="233.378" width="17.2969" height="17.1182" rx="2.5" stroke="black" stroke-opacity="0.1"/>
<path d="M776.139 303.087C776.139 309.06 771.248 313.91 765.204 313.91C759.159 313.91 754.268 309.06 754.268 303.087C754.268 297.113 759.159 292.263 765.204 292.263C771.248 292.263 776.139 297.113 776.139 303.087Z" stroke="black" stroke-opacity="0.1"/>
<path d="M824.626 258.697C824.626 264.67 819.735 269.521 813.69 269.521C807.646 269.521 802.755 264.67 802.755 258.697C802.755 252.724 807.646 247.873 813.69 247.873C819.735 247.873 824.626 252.724 824.626 258.697Z" stroke="black" stroke-opacity="0.1"/>
<path d="M885.006 361.971C885.006 367.944 880.114 372.795 874.07 372.795C868.026 372.795 863.135 367.944 863.135 361.971C863.135 355.998 868.026 351.147 874.07 351.147C880.114 351.147 885.006 355.998 885.006 361.971Z" stroke="black" stroke-opacity="0.1"/>
</g>
<defs>
<clipPath id="clip0_1_2">
<rect width="1280" height="832" fill="white"/>
</clipPath>
</defs>
</svg>
